<svg width="0" height="0" class="hidden">
  <symbol xmlns="http://www.w3.org/2000/svg" viewBox="0 0 65 69" id="human">
    <path d="M60.03 19.665c.69-.69 1.38-1.38 1.725-2.07 2.415-3.105 2.07-4.485-.345-6.555-2.415-2.07-6.21 1.035-6.21 1.035l-.69.69c-3.795-3.45-8.625-6.21-14.145-7.59C38.295 2.07 35.19 0 31.74 0c-3.795 0-6.9 2.415-8.97 5.52-4.485 1.38-8.625 3.795-12.075 6.9-.69-.345-2.07-1.725-3.795-2.07-2.415-.345-4.83 1.38-5.175 3.795 0 1.38 1.38 3.45 3.105 5.52C1.725 24.495 0 30.015 0 36.225 0 53.82 14.49 68.31 32.43 68.31c6.21 0 12.42-1.725 17.25-4.83l-1.035-2.415c-4.485-11.385-3.45-18.63-3.105-22.08 1.035-3.795 4.83-8.97 6.9-11.73 1.38-1.725 3.45-3.45 5.52-5.52 2.76 4.14 4.14 8.97 4.14 14.49 0 7.935-3.45 15.18-8.625 20.7l2.07 1.725c5.865-5.865 9.315-13.8 9.315-22.425 0-6.21-1.725-11.73-4.83-16.56zM31.74 2.76c4.485 0 7.935 4.14 7.935 9.315s-3.45 9.315-7.935 9.315c-4.485 0-7.935-3.795-7.935-9.315s3.45-9.315 7.935-9.315zm0 21.39c5.865 0 10.695-5.52 10.695-12.075 0-1.38-.345-2.415-.69-3.795 4.14 1.38 7.59 3.45 10.695 6.21-2.76 2.415-6.9 5.52-8.97 6.9-3.105 2.415-8.28 4.83-12.42 4.83-4.14 0-6.21-1.725-9.315-3.105-2.76-1.38-7.245-6.555-9.315-8.625 2.76-2.415 5.865-4.14 8.97-5.52 0 1.035-.345 2.07-.345 3.105 0 6.9 4.83 12.075 10.695 12.075zM2.76 36.225c0-5.175 1.38-10.005 3.795-14.49L7.59 22.77s8.625 10.005 10.35 12.42c1.725 2.415-.345 4.14-1.725 10.35-1.035 4.83-1.035 11.385-1.035 14.49C7.59 54.51 2.76 45.885 2.76 36.225zm53.475-16.56c-1.38 1.38-6.21 5.52-10.35 12.075s-3.45 11.73-3.105 15.525c.345 3.795 1.38 7.245 1.725 8.625.345 1.035 1.725 4.83 2.07 5.865-4.14 2.07-8.97 3.45-13.8 3.45-5.52 0-10.35-1.38-14.835-3.795 0-11.73.69-13.455 1.035-15.18 0-1.725 1.035-5.175 2.07-7.935.69-2.415-.345-4.485-1.38-5.52C18.63 31.74 8.625 19.665 6.9 17.25c-2.07-2.415-2.415-3.45-.69-4.14 1.725-1.035 6.21 4.485 8.28 6.9 1.725 2.415 9.66 8.97 16.905 8.625 7.245-.345 12.42-4.14 14.49-5.52 1.725-1.38 10.695-8.625 12.075-9.66 1.38-1.035 3.105 0 2.76 1.035-.345 1.035-3.105 3.795-4.485 5.175z"></path>
  </symbol>
  <symbol xmlns="http://www.w3.org/2000/svg" viewBox="0 0 68 68" id="smiley">
    <path d="M34 2C16.431 2 2 16.431 2 34c0 17.569 14.431 32 32 32 17.569 0 32-14.431 32-32C66 16.431 51.569 2 34 2zm0 61.49C17.686 63.49 4.51 50.314 4.51 34S17.686 4.51 34 4.51 63.49 17.686 63.49 34 50.314 63.49 34 63.49z"></path>
    <path d="M34 50.627c-10.98 0-17.569-9.725-17.569-9.725l-2.196 1.569C23.02 53.765 34 53.45 34 53.45s10.98.627 19.765-10.98l-2.196-1.569S44.98 50.627 34 50.627zM23.333 37.451c7.53-3.451 8.785-7.843 8.785-10.04 0-2.509-1.569-5.333-4.393-5.333-3.137 0-4.392 1.57-4.392 1.57s-1.255-1.57-4.392-1.57c-2.823 0-4.392 3.138-4.392 5.334 0 2.196 1.255 6.588 8.784 10.039zm0-10.667c1.569-2.51 5.961-2.823 6.275.314 0 4.392-6.275 7.53-6.275 7.53s-6.274-3.138-6.274-7.53c.313-3.137 4.706-2.823 6.274-.314zm21.334 10.667c7.53-3.451 8.784-7.843 8.784-9.726 0-2.51-1.569-5.333-4.392-5.333-3.137 0-4.392 1.569-4.392 1.569s-1.255-1.569-4.392-1.569c-2.824 0-4.393 3.137-4.393 5.334 0 1.882 1.255 6.274 8.785 9.725zm0-10.667c1.568-2.51 5.96-2.823 6.274.314 0 4.392-6.274 7.53-6.274 7.53s-6.275-3.138-6.275-7.53c.314-3.137 4.706-2.823 6.275-.314z"></path>
  </symbol>
  <symbol xmlns="http://www.w3.org/2000/svg" viewBox="0 0 20 20" id="tv">
    <g clip-path="url(#clip0)">
      <path d="M19.455 2.016c-.817.49-1.69.818-2.616 1.036a4.032 4.032 0 00-2.997-1.308c-2.289 0-4.087 1.907-4.087 4.196 0 .327.054.654.109.98-3.433-.217-6.43-1.907-8.447-4.468a4.555 4.555 0 00-.545 2.125c0 1.472.708 2.725 1.853 3.488-.654 0-1.308-.218-1.853-.545v.11c0 2.016 1.417 3.76 3.27 4.14a3.514 3.514 0 01-1.09.164c-.273 0-.545 0-.763-.054.545 1.69 2.016 2.888 3.815 2.943A8.03 8.03 0 01.98 16.62c-.327 0-.654 0-.981-.054a11.33 11.33 0 006.267 1.907c7.575 0 11.662-6.43 11.662-11.99V5.94c.818-.6 1.526-1.308 2.071-2.18-.708.327-1.526.545-2.343.654.817-.6 1.471-1.417 1.798-2.398z"></path>
    </g>
    <defs>
      <clipPath id="clip0">
        <path d="M0 0h20v20H0z"></path>
      </clipPath>
    </defs>
  </symbol>
  <symbol xmlns="http://www.w3.org/2000/svg" viewBox="0 0 20 20" id="vk">
    <g clip-path="url(#clip0)">
      <path d="M19.891 14.605c0-.055-.054-.11-.054-.11-.328-.598-1.036-1.416-2.017-2.288-.436-.436-.708-.708-.817-.872-.218-.272-.273-.545-.164-.817.11-.218.382-.654.927-1.363.272-.381.49-.654.654-.872 1.198-1.58 1.743-2.615 1.58-3.051l-.055-.11c-.054-.163-.163-.217-.326-.272-.164-.054-.382-.054-.654 0h-3.216c-.109 0-.109.055-.109.055h-.054l-.055.054c-.054 0-.054.055-.109.11-.054.054-.054.108-.109.163a23.35 23.35 0 01-1.09 2.343c-.272.436-.49.817-.708 1.144-.218.327-.382.545-.545.709l-.381.381c-.11.11-.218.11-.273.11-.054 0-.109-.055-.163-.055-.11-.055-.164-.164-.218-.273-.055-.109-.11-.218-.11-.381 0-.164-.054-.327-.054-.436V5.667c0-.217 0-.38-.054-.49 0-.109-.055-.218-.11-.327-.054-.109-.108-.218-.217-.272l-.327-.164c-.382-.109-.818-.109-1.417-.109-1.308 0-2.126.055-2.507.273-.164.054-.273.163-.382.327-.108.163-.163.218-.054.272.436.055.708.218.872.436l.054.11c.055.108.11.272.164.49.054.218.054.49.109.762.054.49.054.927 0 1.308-.055.382-.055.654-.11.818-.054.218-.054.381-.163.49l-.109.218c0 .055-.054.055-.054.055-.109.054-.164.054-.273.054-.109 0-.218-.054-.327-.163a2.755 2.755 0 01-.435-.382 2.641 2.641 0 01-.49-.708c-.164-.327-.382-.654-.6-1.09l-.164-.327c-.109-.218-.272-.49-.436-.872-.163-.381-.327-.708-.49-1.09-.055-.109-.164-.218-.273-.327h-.054c-.055-.054-.11-.054-.164-.109-.054 0-.163-.054-.218-.054H.708c-.327 0-.545.109-.654.218v.054C0 5.123 0 5.178 0 5.232c0 .054 0 .163.054.272.436.981.872 1.907 1.363 2.834.49.926.926 1.635 1.253 2.18.382.545.709 1.09 1.09 1.58.382.49.6.817.763.926.11.164.218.219.273.328l.272.272c.164.163.436.381.709.6.327.217.654.435 1.09.708.381.218.871.436 1.362.545.545.163 1.035.218 1.526.163h1.199a.832.832 0 00.545-.218l.054-.054c.055-.055.055-.11.055-.218 0-.11.054-.164.054-.273 0-.272 0-.545.055-.817.054-.218.109-.436.163-.545.055-.109.164-.218.218-.327.11-.109.164-.109.164-.164.054 0 .054-.054.109-.054.163-.055.381 0 .599.163.218.164.436.382.654.6.218.218.436.49.708.817.273.273.545.545.709.654l.218.11c.163.108.327.163.545.217.218.055.436.11.6.055l2.67-.055c.272 0 .49-.054.599-.109.164-.109.218-.163.273-.272.054-.11.054-.218 0-.382 0 0 0-.109-.055-.163z"></path>
    </g>
    <defs>
      <clipPath id="clip0">
        <path d="M0 0h20v20H0z"></path>
      </clipPath>
    </defs>
  </symbol>
  <symbol xmlns="http://www.w3.org/2000/svg" viewBox="0 0 53 38" id="logo">
    <g clip-path="url(#clip0)">
      <path d="M0 8.565c0-2.461.8-4.43 2.4-6.104C4.1.886 6.1 0 8.6 0c2.6 0 4.6.69 6.2 2.166l-1.2 1.772c-.6-.59-1.4-.985-2.3-1.28-.9-.295-1.7-.492-2.6-.492-1.9 0-3.4.59-4.6 1.772C3 5.218 2.5 6.694 2.5 8.565c0 1.87.6 3.445 1.7 4.725 1.2 1.28 2.7 1.87 4.6 1.87.9 0 1.9-.196 2.8-.59.9-.394 1.7-.886 2.4-1.575l1.3 1.673c-1.8 1.772-4 2.658-6.6 2.658-2.6 0-4.7-.787-6.3-2.46C.8 13.092 0 11.025 0 8.564zm18.3 8.466V.295h2.3V7.58h8.8V.295h2.4v16.638h-2.4V9.648h-8.8v7.285h-2.3v.098zm16.9-8.466c0-2.363.8-4.43 2.5-6.104C39.3.788 41.4 0 43.9 0s4.6.788 6.2 2.461c1.7 1.674 2.5 3.643 2.5 6.104 0 2.46-.8 4.528-2.5 6.202-1.7 1.673-3.7 2.56-6.2 2.56s-4.6-.887-6.2-2.56c-1.7-1.674-2.5-3.741-2.5-6.202zm2.5 0c0 1.87.6 3.445 1.8 4.725 1.2 1.28 2.7 1.87 4.5 1.87 1.8 0 3.3-.59 4.5-1.87 1.2-1.28 1.8-2.855 1.8-4.725 0-1.772-.6-3.347-1.8-4.529-1.2-1.181-2.7-1.87-4.5-1.87-1.8 0-3.3.59-4.5 1.87-1.3 1.182-1.8 2.658-1.8 4.529zM0 29.238c0-2.46.8-4.43 2.4-6.103 1.7-1.575 3.7-2.461 6.2-2.461 2.6 0 4.6.689 6.2 2.165l-1.2 1.772c-.6-.59-1.4-.984-2.3-1.28-.9-.295-1.8-.492-2.6-.492-1.9 0-3.4.591-4.6 1.772-1.1 1.182-1.7 2.757-1.7 4.529 0 1.87.6 3.446 1.7 4.725 1.2 1.28 2.7 1.87 4.6 1.87.9 0 1.9-.196 2.8-.59.9-.394 1.7-.886 2.4-1.575l1.3 1.673c-1.8 1.773-4 2.658-6.6 2.658-2.6 0-4.7-.787-6.3-2.46C.8 33.766 0 31.698 0 29.237zm16.8 0c0-2.46.8-4.43 2.4-6.103 1.6-1.575 3.7-2.461 6.2-2.461 2.6 0 4.6.689 6.2 2.165l-1.2 1.772c-.6-.59-1.4-.984-2.3-1.28-.9-.295-1.8-.492-2.6-.492-1.9 0-3.4.591-4.6 1.772-1.1 1.182-1.7 2.757-1.7 4.529 0 1.87.6 3.446 1.7 4.725 1.2 1.28 2.7 1.87 4.6 1.87.9 0 1.9-.196 2.8-.59.9-.394 1.7-.886 2.4-1.575l1.3 1.673c-1.8 1.773-4 2.658-6.6 2.658-2.6 0-4.7-.787-6.3-2.46-1.5-1.674-2.3-3.742-2.3-6.203zm16.8 0c0-2.362.8-4.43 2.5-6.103 1.6-1.674 3.7-2.461 6.2-2.461s4.6.787 6.2 2.46c1.6 1.674 2.5 3.643 2.5 6.104 0 2.462-.8 4.529-2.5 6.202-1.7 1.674-3.7 2.56-6.2 2.56s-4.6-.886-6.2-2.56c-1.7-1.673-2.5-3.74-2.5-6.202zm2.4 0c0 1.87.6 3.446 1.8 4.726 1.2 1.28 2.7 1.87 4.5 1.87 1.8 0 3.3-.59 4.5-1.87 1.2-1.28 1.8-2.855 1.8-4.726 0-1.772-.6-3.347-1.8-4.528-1.2-1.181-2.7-1.87-4.5-1.87-1.8 0-3.3.59-4.5 1.87-1.2 1.181-1.8 2.658-1.8 4.528z"></path>
    </g>
    <defs>
      <clipPath id="clip0">
        <path d="M0 0h52.6v38H0z"></path>
      </clipPath>
    </defs>
  </symbol>
  <symbol xmlns="http://www.w3.org/2000/svg" viewBox="0 0 20 20" id="f">
    <path d="M20 18.91c0 .6-.49 1.09-1.09 1.09h-5.123v-7.738h2.616l.382-2.998h-2.998V7.357c0-.872.218-1.471 1.472-1.471h1.58V3.16c-.272-.055-1.199-.11-2.343-.11-2.289 0-3.87 1.418-3.87 3.979v2.234H8.012v2.998h2.616V20H1.09C.49 20 0 19.51 0 18.91V1.09C0 .49.49 0 1.09 0h17.82c.6 0 1.09.49 1.09 1.09v17.82z"></path>
  </symbol>
  <symbol xmlns="http://www.w3.org/2000/svg" viewBox="0 0 20 20" id="in">
    <path d="M17.602 0H2.398C1.09 0 0 1.035 0 2.343v15.314C0 18.965 1.09 20 2.398 20h15.204C18.91 20 20 18.965 20 17.657V2.343C20 1.035 18.91 0 17.602 0zm-3.215 3.106c0-.327.272-.6.6-.6h1.907c.327 0 .6.273.6.6V4.96c0 .327-.273.6-.6.6H15.04a.605.605 0 01-.6-.6l-.054-1.853zm-4.36 3.052c2.126 0 3.87 1.69 3.87 3.815s-1.744 3.814-3.87 3.814c-2.125 0-3.869-1.689-3.869-3.814 0-2.071 1.744-3.815 3.87-3.815zm8.066 11.335c0 .327-.273.6-.6.6H2.507a.605.605 0 01-.6-.6V8.12H4.36c-.327.49-.436 1.362-.436 1.907 0 3.325 2.725 6.05 6.103 6.05 3.379 0 6.104-2.726 6.104-6.05 0-.545-.055-1.417-.49-1.907h2.506l-.054 9.373z"></path>
  </symbol>
  <symbol xmlns="http://www.w3.org/2000/svg" viewBox="0 0 14 15" id="tel">
    <g clip-path="url(#clip0)">
      <path d="M13.745 13.092c-.254.502-.763.752-1.272 1.003-.637.376-1.146.5-1.782.5-.891 0-1.782-.375-2.546-.626-.636-.25-1.145-.5-1.781-.751-1.782-1.128-3.819-3.133-4.837-4.762a11.386 11.386 0 01-.89-1.754C.381 5.825 0 5.073 0 4.072c0-.627.127-1.254.51-1.88.254-.501.508-1.003 1.017-1.253.382 0 1.018-.126 1.4-.126h.255c.254.126.382.502.509.752.254.627.636 1.128.89 1.754.255.251.51.502.51.752 0 .627-1.782 1.504-1.782 2.005 0 .25.255.626.382.877 1.018 1.754 2.29 3.007 4.073 4.01.254.125.636.375.89.375.51 0 1.4-1.754 2.037-1.754.254 0 .509.25.763.501.51.376 1.146.627 1.655 1.003.255.125.636.25.764.5v.251c.127.251 0 .877-.127 1.253z"></path>
    </g>
    <defs>
      <clipPath id="clip0">
        <path transform="translate(0 .813)" d="M0 0h14v13.782H0z"></path>
      </clipPath>
    </defs>
  </symbol>
  <symbol xmlns="http://www.w3.org/2000/svg" viewBox="0 0 41 41" id="leaf">
    <path d="M6.687 24.47c0 .487.243.973.243 1.458 0 1.944.242 5.102.242 5.102h1.215s0-5.102-.729-7.774c-.728-2.915-.971-8.259.729-12.146l-1.215-.485s-1.457 2.915-1.457 7.53c0 2.915.243 4.13.486 5.344-.972-.729-3.644-3.158-3.401-8.259.486-5.83 5.587-11.174 5.587-11.174s8.988 8.502.972 17.976l.971.728s3.644-4.13 3.644-8.745c0-4.615-1.943-8.502-5.587-11.66 0 0-6.316 6.073-6.802 13.36-.243 6.803 4.859 9.232 4.859 9.232l.243-.486z"></path>
    <path d="M19.318 18.155c-8.988 2.672-8.502 11.417-8.259 13.36-3.158 3.158-4.615 6.074-4.615 6.074l.971.485c9.231-15.303 23.563-12.388 23.563-12.388V24.47c-8.745-.972-14.818 2.43-18.947 5.83-.243-3.158 1.214-10.688 10.445-11.417 10.689-.243 15.79 6.073 15.79 6.073-5.587 8.988-11.903 10.202-15.79 10.688-4.13.729-9.23-2.186-9.23-2.186l-.486.972s4.372 2.915 9.96 2.429c12.145-1.458 16.76-12.146 16.76-12.146-1.214-2.43-10.202-8.988-20.162-6.559z" ></path>
  </symbol>
  <symbol xmlns="http://www.w3.org/2000/svg" viewBox="0 0 41 41" id="auto">
    <path d="M6.848 16.633l2.164-1.731h.216c.65 0 1.082-.433 1.082-1.082 0-.433-.216-.65-.433-.866V8.41H8.795v4.544c-.433.216-.649.433-.649.866v.216l-2.164 1.731.866.866z"></path>
    <path d="M39.74 28.319v-6.925c0-2.164-.865-3.03-.865-3.03s-2.164-2.813-3.462-4.544c-1.299-1.732-3.03-1.732-3.03-1.732h-7.358v-1.082c0-1.514-1.082-2.596-2.596-2.596h-6.276c-1.515-2.164-4.112-3.68-6.925-3.68-4.76 0-8.44 3.896-8.44 8.657 0 1.947.65 3.679 1.732 5.193v9.522c0 1.515 1.082 2.597 2.596 2.597h1.082v.216c0 2.597 2.164 4.761 4.761 4.761s4.761-2.164 4.761-4.76v-.217h10.82v.216c0 2.597 2.164 4.761 4.761 4.761s4.76-2.164 4.76-4.76v-.217h.434c3.678.216 3.246-2.38 3.246-2.38zm-1.081-7.575v.65h-8.44c-.433 0-.866-.433-.866-.866v-3.462c0-.433.433-.866.866-.866h5.626c.65.65 1.299 1.515 1.732 2.164 1.082 1.298 1.082 2.38 1.082 2.38zM9.229 6.03c4.11 0 7.573 3.246 7.573 7.574 0 4.328-3.462 7.358-7.574 7.358S1.87 17.498 1.87 13.387c0-4.112 3.246-7.358 7.358-7.358zm1.514 28.565c-1.948 0-3.463-1.515-3.463-3.462 0-1.948 1.515-3.463 3.463-3.463 1.947 0 3.462 1.515 3.462 3.463 0 1.947-1.514 3.462-3.462 3.462zm4.328-4.977c-.65-1.731-2.38-3.246-4.328-3.246-1.948 0-3.679 1.298-4.328 3.246H4.9c-.65 0-1.298-.65-1.298-1.299v-8.656c1.514 1.299 3.462 2.164 5.626 2.164 4.76 0 8.44-3.895 8.44-8.44 0-1.298-.433-2.596-.866-3.678h5.627c.649 0 1.298.65 1.298 1.298V28.32c0 .649-.65 1.298-1.299 1.298h-7.357zm16.014 4.977c-1.948 0-3.463-1.515-3.463-3.462 0-1.948 1.515-3.463 3.463-3.463 1.947 0 3.462 1.515 3.462 3.463 0 1.947-1.515 3.462-3.462 3.462zm5.41-4.76h-.866c-.65-1.948-2.38-3.247-4.328-3.247-2.164 0-3.895 1.299-4.328 3.246h-2.164c.433-.432.65-.865.65-1.514V12.954h6.708c1.947 0 2.813 1.298 2.813 1.298s-.217.433.216.866H30.22c-1.082 0-1.731.866-1.731 1.731v3.463c0 1.082.865 1.73 1.731 1.73h8.656v5.627c-.216 2.38-2.38 2.164-2.38 2.164z"></path>
  </symbol>
  <symbol xmlns="http://www.w3.org/2000/svg" viewBox="0 0 41 41" id="belt">
    <path d="M12.568 9.167c0 .486.972.972 2.43.972 1.457 0 2.428-.486 2.428-.972s-.971-.972-2.429-.972c-1.214 0-2.43.243-2.43.972z" ></path>
    <path d="M38.803 18.155a4.354 4.354 0 00-4.372-4.373H12.082s-5.83.243-8.502-4.372c.243-3.4 2.915-5.83 6.316-5.83h9.717c3.643 0 6.315 2.915 6.315 6.316v1.214h1.215v-.971c0-4.373-3.4-7.774-7.773-7.774h-9.231c-4.373 0-7.774 3.401-7.774 7.774v11.417c0 4.372 3.401 7.773 7.774 7.773h1.7v-1.214H9.896c-3.644 0-6.316-2.915-6.316-6.316V11.597c.729.97 3.158 3.4 8.26 3.4h22.59c1.7 0 2.915 1.215 2.915 2.915v1.943c0 1.7-1.215 2.915-2.915 2.915H18.884a4.354 4.354 0 00-4.373 4.373v6.559a4.354 4.354 0 004.373 4.372H34.43a4.354 4.354 0 004.372-4.372V18.155zm-1.457 16.033c0 1.7-1.215 2.915-2.915 2.915H18.64c-1.7 0-2.915-1.215-2.915-2.915v-7.045c0-1.7 1.214-2.915 2.915-2.915h4.615v4.13h1.215v-4.13h7.773v4.13h1.215v-4.13h.972c1.214 0 2.429-.486 3.158-1.215v11.175h-.243z"></path>
  </symbol>
  <symbol xmlns="http://www.w3.org/2000/svg" viewBox="0 0 64 54" id="hand">
    <path d="M49.937 8.45c-6.027 0-13.776 4.305-13.489 13.201 0 0-11.766-3.73-15.21 8.61 0 0-2.01-4.305-4.592-6.313-2.87-2.01-6.314-7.175-6.601-9.758.287-1.435.574-1.435 1.148-1.722.287 0 .287 2.296 2.87 2.583 2.296-.287 2.87-.861 3.73-2.01l2.584-2.87s2.583-3.443.287-5.165c-2.01-2.01-5.74-5.74-10.332-4.88C7.749.702 5.74 2.71 5.74 2.71L2.296 5.867S0 8.163 0 12.755c0 4.018.861 10.618.861 10.618l1.148 6.888c.287 1.722 2.583 11.767 8.036 17.22 3.444 4.018 5.453 5.74 7.175 6.027 2.87 0 4.305-1.722 6.6-1.722 2.297 0 4.593 1.722 9.471 1.722 4.88 0 15.785-2.87 20.377-16.933C57.973 34.853 64 31.696 64 22.225c0-9.47-8.323-13.775-14.063-13.775zm2.01 26.403C48.788 47.481 38.743 50.925 33.864 51.5c-4.592 0-7.174-1.722-10.618-1.722-2.01 0-4.88 1.722-5.74 1.722-.861 0-3.157-2.009-6.027-5.166-2.87-3.157-4.018-6.027-5.166-8.323-1.148-2.296-3.157-11.48-3.157-11.48s-.861-9.183-.861-13.201c0-3.731 1.722-6.027 1.722-6.027L8.61 3.284c2.583-2.01 5.74-.574 5.74-.574s3.157 2.009 4.305 3.157c1.435 1.148 0 2.296 0 2.296s-3.157 4.018-4.305 4.305c-1.435.287-1.722-3.157-1.722-3.157-1.435.574-3.731 1.148-4.592 3.73-.861 3.158 3.73 9.758 7.175 12.915 3.157 3.157 5.166 8.323 5.166 8.323l2.583-.86s-.287-6.028 4.879-9.184c5.74-3.157 10.905 1.148 10.905 1.148-1.722-14.35 10.906-14.637 11.767-14.637.861 0 10.906.86 11.767 10.905-.574 11.48-10.332 13.202-10.332 13.202z"></path>
  </symbol>
</svg>